<svg width="200" height="60" viewBox="0 0 200 60" xmlns="http://www.w3.org/2000/svg">
  <!-- Background circle -->
  <circle cx="30" cy="30" r="25" fill="#2563eb" opacity="0.1"/>
  
  <!-- Heart icon -->
  <path d="M30 45 C30 45, 15 35, 15 25 C15 20, 18 17, 22 17 C25 17, 28 20, 30 25 C32 20, 35 17, 38 17 C42 17, 45 20, 45 25 C45 35, 30 45, 30 45 Z" 
        fill="#ef4444" stroke="#dc2626" stroke-width="1"/>
  
  <!-- Pulse line -->
  <path d="M50 30 L55 20 L60 40 L65 10 L70 50 L75 30 L80 35 L85 25 L90 45 L95 15 L100 40 L105 20 L110 35 L115 30" 
        stroke="#16a34a" stroke-width="3" fill="none" stroke-linecap="round"/>
  
  <!-- Pulse dots -->
  <circle cx="55" cy="20" r="2" fill="#16a34a"/>
  <circle cx="65" cy="10" r="2" fill="#16a34a"/>
  <circle cx="70" cy="50" r="2" fill="#16a34a"/>
  <circle cx="75" cy="30" r="2" fill="#16a34a"/>
  <circle cx="85" cy="45" r="2" fill="#16a34a"/>
  <circle cx="95" cy="15" r="2" fill="#16a34a"/>
  <circle cx="100" cy="40" r="2" fill="#16a34a"/>
  <circle cx="105" cy="20" r="2" fill="#16a34a"/>
  <circle cx="110" cy="35" r="2" fill="#16a34a"/>
  
  <!-- Text -->
  <text x="125" y="25" font-family="Arial, sans-serif" font-size="24" font-weight="bold" fill="#1f2937">FitPulse</text>
  <text x="125" y="42" font-family="Arial, sans-serif" font-size="12" fill="#6b7280">Anomaly Detection</text>
</svg>

